<svg width="400" height="76" viewBox="0 0 400 76" fill="none" xmlns="http://www.w3.org/2000/svg">
<g clip-path="url(#clip0)">
<path d="M160.244 32.5319L154.448 57.8147H139.351L145.146 32.5319C145.6 30.5446 145.337 30.1783 143.198 30.1783H137.747C135.621 30.1783 135.176 30.5446 134.727 32.4813C134.727 32.4813 134.727 32.515 134.727 32.5319L128.931 57.8147H113.819L119.62 32.5319C120.074 30.5446 119.81 30.1783 117.667 30.1783H112.216C110.072 30.1783 109.641 30.5488 109.186 32.5319L103.386 57.8147H88.2883L97.1862 19.0042H109.45L111.394 22.3387C112.512 21.2473 113.866 20.3863 115.367 19.8118C116.868 19.2373 118.482 18.9621 120.106 19.0042H123.235C129.14 19.0042 133.123 21.383 134.55 25.4038C137.188 20.9325 141.013 19.0042 145.632 19.0042H148.766C157.637 19.0042 162.147 24.3134 160.244 32.5319Z" fill="white"/>
<path d="M272.259 26.4447L267.565 48.5553C264.281 64.0138 252.17 74 236.695 74H216.764C201.313 74 193.453 64.0059 196.738 48.5474L201.432 26.4447C204.709 10.9862 216.819 1 232.302 1H252.265C267.684 1 275.552 10.9862 272.259 26.4447ZM245.925 26.4447C246.716 22.7068 246.257 22.0178 242.529 22.0178H233.03C229.294 22.0178 228.542 22.7147 227.751 26.4447L223.049 48.5474C222.257 52.2853 222.724 52.9743 226.453 52.9743H235.951C239.679 52.9743 240.439 52.2774 241.231 48.5474L245.925 26.4447Z" fill="#4953B8"/>
<path d="M213.76 32.5277L211.066 44.2828C209.181 52.5013 202.232 57.8105 193.352 57.8105H181.915C173.049 57.8105 168.538 52.4971 170.423 44.2786L173.117 32.5277C174.997 24.3092 181.947 19 190.831 19H202.286C211.134 19 215.649 24.3092 213.76 32.5277ZM198.648 32.5277C199.102 30.5404 198.839 30.1741 196.7 30.1741H191.249C189.105 30.1741 188.674 30.5446 188.219 32.5277L185.521 44.2786C185.067 46.2659 185.335 46.6322 187.475 46.6322H192.925C195.064 46.6322 195.5 46.2617 195.955 44.2786L198.648 32.5277Z" fill="white"/>
<path d="M353.477 29.4542C352.924 31.6604 351.591 33.6317 349.689 35.0539L341.999 40.9483C340.155 42.3855 337.836 43.1938 335.427 43.2387H324.78L324.54 44.2786C324.085 46.2659 324.349 46.6322 326.493 46.6322H349.53L346.968 57.8105H320.915C312.049 57.8105 307.538 52.4971 309.423 44.2786L312.117 32.5277C314.002 24.3092 320.951 19 329.831 19H341.295C350.139 19.0168 354.713 24.0481 353.477 29.4542ZM337.662 32.5445C338.116 30.5573 337.852 30.191 335.709 30.191H330.258C328.123 30.1868 327.669 30.5615 327.215 32.5445L326.306 36.5906H335.3C335.703 36.5751 336.09 36.4381 336.401 36.2002C336.713 35.9623 336.932 35.6367 337.026 35.2728L337.662 32.5445Z" fill="white"/>
<path d="M386.452 18.9871L383.89 30.157L377.531 57.7934H362.438L368.797 30.157H361.261L363.828 18.9829L386.452 18.9871ZM375.242 11.7412C372.626 9.04658 373.425 4.42368 377.018 1.42174C380.611 -1.5802 385.648 -1.8244 388.278 0.874403C390.908 3.5732 390.094 8.1961 386.502 11.198C382.909 14.2 377.863 14.4442 375.242 11.7412Z" fill="white"/>
<path d="M33.9382 3H53.0968L37.1586 73.3077H18L33.9382 3Z" fill="white"/>
<path d="M56.4226 10H75.5812L63.1631 65.0875H44L56.4226 10Z" fill="white"/>
<path d="M7.42264 10H26.5812L14.1631 65.0875H-5L7.42264 10Z" fill="white"/>
<path d="M308.647 19L280.654 57.8105H265.211L255 19H271.538L275.984 44.4849L292.109 19.0211L308.647 19Z" fill="white"/>
</g>
<defs>
<clipPath id="clip0">
<rect width="400" height="76" fill="white"/>
</clipPath>
</defs>
</svg>
